# xmcd CD database file
#
# Track frame offsets:
#	150
#	11885
#	25805
#	38266
#	51360
#	63108
#	74764
#	85821
#	98153
#	110379
#	122567
#	136100
#	148535
#	158502
#	170458
#	182298
#	192580
#	204772
#	216923
#	228706
#
# Disc length: 3172 seconds
#
# Revision: 0
# Processed by: cddbd v1.5.2PL0 Copyright (c) Steve Scherf et al.
# Submitted via: CDex 1.73
#
DISCID=0c0c6214
DTITLE=Eddy Arnold - Famous Country Music Makers
DYEAR=2007
DGENRE=Country
TTITLE0=01 - Just Call Me Lonesome
TTITLE1=02 - The Cattle Call
TTITLE2=03 - Just A Little Lovin' (Will Go A Long, Long Way)
TTITLE3=04 - Anytime
TTITLE4=05 - I Really Don't Want To Know
TTITLE5=06 - Boquet Of Roses
TTITLE6=07 - It's A Sin
TTITLE7=08 - I'll Hold You In My Heart
TTITLE8=09 - Texarkana Baby
TTITLE9=10 - The Echo Of Your Footsteps
TTITLE10=11 - What A Fool I Was
TTITLE11=12 - This Is The Thanks I Get (For Loving You)
TTITLE12=13 - I Wanna Play House With You
TTITLE13=14 - I'm Throwing RiceAt The Girl I Love
TTITLE14=15 - Don't Rob Another Man's Castle
TTITLE15=16 - There's Been A Chance In Me
TTITLE16=17 - Trouble In Mind
TTITLE17=18 - Casey Jones (The Brave Engineer)
TTITLE18=19 - You Don't Know Me
TTITLE19=20 - I've Been Thinking
EXTD=YEAR: 2007
EXTT0=
EXTT1=
EXTT2=
EXTT3=
EXTT4=
EXTT5=
EXTT6=
EXTT7=
EXTT8=
EXTT9=
EXTT10=
EXTT11=
EXTT12=
EXTT13=
EXTT14=
EXTT15=
EXTT16=
EXTT17=
EXTT18=
EXTT19=
PLAYORDER=
